<svg width="343" height="41" viewBox="0 0 343 41" fill="none" xmlns="http://www.w3.org/2000/svg">
<path d="M61.4205 8.83195H58.6336L56.864 7.06228C56.2239 6.42161 55.3588 6.05655 54.4533 6.04506H50.9697C50.7745 5.26306 50.3279 4.5668 49.6985 4.0633C49.0692 3.5598 48.2919 3.27693 47.4861 3.25818V12.1205C47.5577 13.5277 48.114 14.8669 49.0607 15.9106C50.6193 17.409 52.658 18.3074 54.8156 18.4467L59.623 16.5238C60.187 16.2973 60.6949 15.9506 61.1112 15.5078C61.5276 15.065 61.8424 14.5367 62.0336 13.9598L62.814 11.8279C62.8351 11.6846 62.8351 11.5391 62.814 11.3959V10.2254C62.814 9.85583 62.6671 9.5014 62.4058 9.24008C62.1445 8.97876 61.7901 8.83195 61.4205 8.83195ZM54.4533 11.6188C54.1777 11.6188 53.9083 11.5371 53.6791 11.384C53.45 11.2309 53.2714 11.0133 53.1659 10.7586C53.0605 10.504 53.0329 10.2238 53.0866 9.95354C53.1404 9.68324 53.2731 9.43496 53.468 9.24008C53.6629 9.0452 53.9111 8.91249 54.1814 8.85872C54.4518 8.80496 54.7319 8.83255 54.9865 8.93802C55.2412 9.04349 55.4588 9.22209 55.6119 9.45124C55.765 9.68039 55.8467 9.94979 55.8467 10.2254C55.8467 10.595 55.6999 10.9494 55.4386 11.2107C55.1773 11.472 54.8229 11.6188 54.4533 11.6188Z" fill="#0E4B5B"/>
<path d="M48.0156 16.8303C47.0435 15.7658 46.4084 14.4373 46.1902 13.0123H40.5188C40.1465 13.0369 39.7732 12.9817 39.4239 12.8504C39.0746 12.719 38.7574 12.5146 38.4935 12.2507C38.2297 11.9869 38.0252 11.6697 37.8939 11.3204C37.7625 10.9711 37.7073 10.5978 37.732 10.2254C37.732 9.85585 37.5851 9.50142 37.3238 9.2401C37.0625 8.97878 36.7081 8.83197 36.3385 8.83197C35.9689 8.83197 35.6145 8.97878 35.3532 9.2401C35.0919 9.50142 34.9451 9.85585 34.9451 10.2254C34.9591 11.1924 35.1875 12.1443 35.6139 13.0123C36.084 13.9238 36.8236 14.6682 37.732 15.1443V31.1271H41.9123V24.1598H50.2729V31.1271H54.4533V19.7984C52.0225 19.6069 49.7397 18.5545 48.0156 16.8303Z" fill="#0E4B5B"/>
<line x1="98.5137" y1="40.5" x2="4.57764e-05" y2="40.5" stroke="#0E4B5B"/>
<path d="M308.151 16.4959L303.901 14.9213C303.539 13.3188 302.633 12.3992 302.633 12.3992C302.091 11.8559 301.447 11.4249 300.738 11.1308C300.029 10.8368 299.269 10.6854 298.502 10.6854C297.734 10.6854 296.974 10.8368 296.265 11.1308C295.556 11.4249 294.912 11.8559 294.37 12.3992L292.308 14.4614L283.069 4.65161C281.676 10.2254 283.069 15.7992 286.483 20.286L278.889 27.6434C278.889 27.6434 291.277 30.4303 298.495 24.7869C302.341 21.777 303.205 20.0213 303.748 18.168L308.151 16.4959ZM300.78 16.8024C300.237 17.3459 299.345 17.3459 298.801 16.8024C298.672 16.6735 298.57 16.5204 298.5 16.3518C298.43 16.1833 298.394 16.0026 298.394 15.8201C298.394 15.6376 298.43 15.4569 298.5 15.2883C298.57 15.1197 298.672 14.9666 298.801 14.8377C299.345 14.2942 300.237 14.2942 300.78 14.8377C301.324 15.3811 301.324 16.259 300.78 16.8024Z" fill="black" fill-opacity="0.25"/>
<path d="M180.424 19.9795C181.765 19.9746 183.076 19.5826 184.2 18.8508L184.604 18.586C184.829 18.4339 185.039 18.2613 185.231 18.0705L185.524 17.7918C185.769 17.5416 185.993 17.2713 186.193 16.9836L186.276 16.8721C186.502 16.5393 186.694 16.1845 186.848 15.8131C186.898 15.7097 186.94 15.6026 186.973 15.4926C187.089 15.2077 187.182 14.9142 187.252 14.6147L187.335 14.2664C187.388 13.8506 187.407 13.4311 187.391 13.0123V3.25818L183.211 7.43851H177.637L173.457 3.25818V13.0123C173.457 14.8601 174.191 16.6322 175.497 17.9388C176.804 19.2454 178.576 19.9795 180.424 19.9795ZM183.211 10.2254C183.486 10.2254 183.756 10.3071 183.985 10.4602C184.214 10.6133 184.393 10.831 184.498 11.0856C184.604 11.3402 184.631 11.6204 184.578 11.8907C184.524 12.161 184.391 12.4093 184.196 12.6041C184.001 12.799 183.753 12.9317 183.483 12.9855C183.212 13.0393 182.932 13.0117 182.678 12.9062C182.423 12.8007 182.205 12.6221 182.052 12.393C181.899 12.1638 181.817 11.8944 181.817 11.6188C181.817 11.2493 181.964 10.8948 182.226 10.6335C182.487 10.3722 182.841 10.2254 183.211 10.2254ZM177.637 10.2254C177.913 10.2254 178.182 10.3071 178.411 10.4602C178.64 10.6133 178.819 10.831 178.924 11.0856C179.03 11.3402 179.058 11.6204 179.004 11.8907C178.95 12.161 178.817 12.4093 178.622 12.6041C178.428 12.799 178.179 12.9317 177.909 12.9855C177.639 13.0393 177.358 13.0117 177.104 12.9062C176.849 12.8007 176.632 12.6221 176.479 12.393C176.325 12.1638 176.244 11.8944 176.244 11.6188C176.244 11.2493 176.39 10.8948 176.652 10.6335C176.913 10.3722 177.268 10.2254 177.637 10.2254Z" fill="black" fill-opacity="0.25"/>
<path d="M172.063 31.127V24.1598H167.883V31.127H163.703V17.0533C162.994 16.9503 162.317 16.6921 161.719 16.297C161.122 15.902 160.619 15.3799 160.247 14.768C159.797 14.0271 159.547 13.182 159.522 12.3156C159.548 11.6223 159.715 10.9415 160.013 10.3151C160.311 9.68876 160.734 9.12997 161.256 8.67315C161.778 8.21634 162.388 7.87116 163.048 7.65883C163.709 7.4465 164.406 7.37153 165.096 7.43851C165.468 7.46086 165.84 7.40408 166.189 7.27193C166.537 7.13979 166.853 6.93527 167.116 6.67189C167.38 6.4085 167.584 6.09225 167.717 5.744C167.849 5.39575 167.905 5.02343 167.883 4.65162C167.883 4.28206 168.03 3.92763 168.291 3.66631C168.553 3.40499 168.907 3.25818 169.277 3.25818C169.646 3.25818 170.001 3.40499 170.262 3.66631C170.523 3.92763 170.67 4.28206 170.67 4.65162C170.691 5.38933 170.561 6.12359 170.289 6.80941C170.016 7.49522 169.606 8.11814 169.085 8.64C168.563 9.16185 167.94 9.57164 167.254 9.84426C166.568 10.1169 165.834 10.2466 165.096 10.2254C162.574 10.2254 162.309 11.8418 162.309 12.3295C162.309 12.8172 162.56 14.4057 165.096 14.4057H172.189C172.394 15.6061 172.858 16.7474 173.55 17.7496C174.241 18.7518 175.144 19.5908 176.194 20.208C177.243 20.8251 178.415 21.2054 179.627 21.3224C180.84 21.4394 182.063 21.2902 183.211 20.8852V31.127H179.031V24.1598H176.244V31.127H172.063Z" fill="black" fill-opacity="0.25"/>
</svg>
