<svg width="477" height="49" viewBox="0 0 477 49" fill="none" xmlns="http://www.w3.org/2000/svg">
<path d="M36.0165 8.36065H33.2296L31.4599 6.59098C30.8199 5.95031 29.9548 5.58526 29.0492 5.57377H25.5656C25.3705 4.79176 24.9239 4.0955 24.2945 3.592C23.6651 3.0885 22.8878 2.80563 22.082 2.78688V11.6492C22.1536 13.0564 22.71 14.3956 23.6566 15.4393C25.2153 16.9377 27.254 17.8361 29.4115 17.9754L34.2189 16.0525C34.783 15.826 35.2909 15.4793 35.7072 15.0365C36.1235 14.5937 36.4383 14.0654 36.6296 13.4885L37.4099 11.3566C37.4311 11.2133 37.4311 11.0678 37.4099 10.9246V9.75409C37.4099 9.38453 37.2631 9.0301 37.0018 8.76878C36.7404 8.50746 36.386 8.36065 36.0165 8.36065ZM29.0492 11.1475C28.7736 11.1475 28.5042 11.0658 28.2751 10.9127C28.0459 10.7596 27.8673 10.542 27.7619 10.2873C27.6564 10.0327 27.6288 9.75255 27.6826 9.48225C27.7363 9.21195 27.8691 8.96366 28.0639 8.76878C28.2588 8.5739 28.5071 8.44119 28.7774 8.38743C29.0477 8.33366 29.3279 8.36125 29.5825 8.46672C29.8371 8.57219 30.0547 8.75079 30.2079 8.97994C30.361 9.20909 30.4427 9.4785 30.4427 9.75409C30.4427 10.1237 30.2959 10.4781 30.0346 10.7394C29.7732 11.0007 29.4188 11.1475 29.0492 11.1475Z" fill="#0E4B5B"/>
<path d="M22.6115 16.359C21.6395 15.2944 21.0043 13.966 20.7861 12.541H15.1148C14.7424 12.5656 14.3691 12.5104 14.0198 12.3791C13.6705 12.2477 13.3533 12.0433 13.0895 11.7794C12.8256 11.5155 12.6212 11.1983 12.4898 10.8491C12.3585 10.4998 12.3033 10.1265 12.3279 9.7541C12.3279 9.38454 12.1811 9.03011 11.9198 8.76879C11.6585 8.50747 11.304 8.36066 10.9345 8.36066C10.5649 8.36066 10.2105 8.50747 9.94915 8.76879C9.68782 9.03011 9.54102 9.38454 9.54102 9.7541C9.55501 10.7211 9.78346 11.673 10.2099 12.541C10.6799 13.4525 11.4195 14.1969 12.3279 14.673V30.6557H16.5082V23.6885H24.8689V30.6557H29.0492V19.3271C26.6184 19.1356 24.3357 18.0831 22.6115 16.359Z" fill="#0E4B5B"/>
<path d="M85.7483 15.1053C85.7483 15.756 85.599 16.3533 85.3003 16.8973C85.0016 17.4306 84.543 17.8626 83.9243 18.1933C83.3056 18.524 82.5376 18.6893 81.6203 18.6893H79.9243V22.7213H77.1883V11.4893H81.6203C82.5163 11.4893 83.2736 11.644 83.8923 11.9533C84.511 12.2626 84.975 12.6893 85.2843 13.2333C85.5936 13.7773 85.7483 14.4013 85.7483 15.1053ZM81.4123 16.5133C81.935 16.5133 82.3243 16.3906 82.5803 16.1453C82.8363 15.9 82.9643 15.5533 82.9643 15.1053C82.9643 14.6573 82.8363 14.3106 82.5803 14.0653C82.3243 13.82 81.935 13.6973 81.4123 13.6973H79.9243V16.5133H81.4123ZM95.5887 18.1133C95.5887 18.3693 95.5727 18.636 95.5407 18.9133H89.3487C89.3913 19.468 89.5673 19.8946 89.8767 20.1933C90.1967 20.4813 90.586 20.6253 91.0447 20.6253C91.7273 20.6253 92.202 20.3373 92.4687 19.7613H95.3807C95.2313 20.348 94.9593 20.876 94.5647 21.3453C94.1807 21.8146 93.6953 22.1826 93.1087 22.4493C92.522 22.716 91.866 22.8493 91.1407 22.8493C90.266 22.8493 89.4873 22.6626 88.8047 22.2893C88.122 21.916 87.5887 21.3826 87.2047 20.6893C86.8207 19.996 86.6287 19.1853 86.6287 18.2573C86.6287 17.3293 86.8153 16.5186 87.1887 15.8253C87.5727 15.132 88.106 14.5986 88.7887 14.2253C89.4713 13.852 90.2553 13.6653 91.1407 13.6653C92.0047 13.6653 92.7727 13.8466 93.4447 14.2093C94.1167 14.572 94.6393 15.0893 95.0127 15.7613C95.3967 16.4333 95.5887 17.2173 95.5887 18.1133ZM92.7887 17.3933C92.7887 16.924 92.6287 16.5506 92.3087 16.2733C91.9887 15.996 91.5887 15.8573 91.1087 15.8573C90.65 15.8573 90.2607 15.9906 89.9407 16.2573C89.6313 16.524 89.4393 16.9026 89.3647 17.3933H92.7887ZM99.768 15.2813C100.088 14.7906 100.488 14.4066 100.968 14.1293C101.448 13.8413 101.981 13.6973 102.568 13.6973V16.5933H101.816C101.133 16.5933 100.621 16.7426 100.28 17.0413C99.9387 17.3293 99.768 17.8413 99.768 18.5773V22.7213H97.032V13.7933H99.768V15.2813ZM106.612 15.2813C106.932 14.7906 107.332 14.4066 107.812 14.1293C108.292 13.8413 108.825 13.6973 109.412 13.6973V16.5933H108.66C107.977 16.5933 107.465 16.7426 107.124 17.0413C106.782 17.3293 106.612 17.8413 106.612 18.5773V22.7213H103.876V13.7933H106.612V15.2813ZM114.784 22.8493C113.909 22.8493 113.12 22.6626 112.416 22.2893C111.722 21.916 111.173 21.3826 110.768 20.6893C110.373 19.996 110.176 19.1853 110.176 18.2573C110.176 17.34 110.378 16.5346 110.784 15.8413C111.189 15.1373 111.744 14.5986 112.448 14.2253C113.152 13.852 113.941 13.6653 114.816 13.6653C115.69 13.6653 116.48 13.852 117.184 14.2253C117.888 14.5986 118.442 15.1373 118.848 15.8413C119.253 16.5346 119.456 17.34 119.456 18.2573C119.456 19.1746 119.248 19.9853 118.832 20.6893C118.426 21.3826 117.866 21.916 117.152 22.2893C116.448 22.6626 115.658 22.8493 114.784 22.8493ZM114.784 20.4813C115.306 20.4813 115.749 20.2893 116.112 19.9053C116.485 19.5213 116.672 18.972 116.672 18.2573C116.672 17.5426 116.49 16.9933 116.128 16.6093C115.776 16.2253 115.338 16.0333 114.816 16.0333C114.282 16.0333 113.84 16.2253 113.488 16.6093C113.136 16.9826 112.96 17.532 112.96 18.2573C112.96 18.972 113.13 19.5213 113.472 19.9053C113.824 20.2893 114.261 20.4813 114.784 20.4813ZM124.539 22.8493C123.76 22.8493 123.067 22.716 122.459 22.4493C121.851 22.1826 121.371 21.82 121.019 21.3613C120.667 20.892 120.47 20.3693 120.427 19.7933H123.131C123.163 20.1026 123.307 20.3533 123.563 20.5453C123.819 20.7373 124.134 20.8333 124.507 20.8333C124.848 20.8333 125.11 20.7693 125.291 20.6413C125.483 20.5026 125.579 20.3266 125.579 20.1133C125.579 19.8573 125.446 19.6706 125.179 19.5533C124.912 19.4253 124.48 19.2866 123.883 19.1373C123.243 18.988 122.71 18.8333 122.283 18.6733C121.856 18.5026 121.488 18.2413 121.179 17.8893C120.87 17.5266 120.715 17.0413 120.715 16.4333C120.715 15.9213 120.854 15.4573 121.131 15.0413C121.419 14.6146 121.835 14.2786 122.379 14.0333C122.934 13.788 123.59 13.6653 124.347 13.6653C125.467 13.6653 126.347 13.9426 126.987 14.4973C127.638 15.052 128.011 15.788 128.107 16.7053H125.579C125.536 16.396 125.398 16.1506 125.163 15.9693C124.939 15.788 124.64 15.6973 124.267 15.6973C123.947 15.6973 123.702 15.7613 123.531 15.8893C123.36 16.0066 123.275 16.172 123.275 16.3853C123.275 16.6413 123.408 16.8333 123.675 16.9613C123.952 17.0893 124.379 17.2173 124.955 17.3453C125.616 17.516 126.155 17.6866 126.571 17.8573C126.987 18.0173 127.35 18.284 127.659 18.6573C127.979 19.02 128.144 19.5106 128.155 20.1293C128.155 20.652 128.006 21.1213 127.707 21.5373C127.419 21.9426 126.998 22.2626 126.443 22.4973C125.899 22.732 125.264 22.8493 124.539 22.8493Z" fill="#0E4B5B"/>
<line x1="137" y1="48.5" y2="48.5" stroke="#0E4B5B"/>
<path d="M384.049 16.0246L379.799 14.45C379.437 12.8475 378.531 11.9279 378.531 11.9279C377.989 11.3846 377.345 10.9536 376.636 10.6596C375.927 10.3655 375.167 10.2141 374.4 10.2141C373.632 10.2141 372.872 10.3655 372.163 10.6596C371.454 10.9536 370.81 11.3846 370.268 11.9279L368.206 13.9902L358.967 4.18033C357.574 9.7541 358.967 15.3279 362.381 19.8148L354.787 27.1721C354.787 27.1721 367.175 29.959 374.393 24.3156C378.239 21.3057 379.103 19.55 379.646 17.6967L384.049 16.0246ZM376.678 16.3311C376.135 16.8746 375.243 16.8746 374.699 16.3311C374.57 16.2022 374.468 16.0491 374.398 15.8805C374.328 15.712 374.292 15.5313 374.292 15.3488C374.292 15.1663 374.328 14.9856 374.398 14.817C374.468 14.6484 374.57 14.4953 374.699 14.3664C375.243 13.823 376.135 13.823 376.678 14.3664C377.222 14.9098 377.222 15.7877 376.678 16.3311Z" fill="black" fill-opacity="0.25"/>
<path d="M429.426 20.7373H425.234L424.562 22.7213H421.698L425.762 11.4893H428.93L432.994 22.7213H430.098L429.426 20.7373ZM428.722 18.6253L427.33 14.5133L425.954 18.6253H428.722ZM438.247 20.1613L440.183 13.7933H443.095L439.927 22.7213H436.551L433.383 13.7933H436.311L438.247 20.1613ZM452.663 18.1133C452.663 18.3693 452.647 18.636 452.615 18.9133H446.423C446.466 19.468 446.642 19.8946 446.951 20.1933C447.271 20.4813 447.66 20.6253 448.119 20.6253C448.802 20.6253 449.276 20.3373 449.543 19.7613H452.455C452.306 20.348 452.034 20.876 451.639 21.3453C451.255 21.8146 450.77 22.1826 450.183 22.4493C449.596 22.716 448.94 22.8493 448.215 22.8493C447.34 22.8493 446.562 22.6626 445.879 22.2893C445.196 21.916 444.663 21.3826 444.279 20.6893C443.895 19.996 443.703 19.1853 443.703 18.2573C443.703 17.3293 443.89 16.5186 444.263 15.8253C444.647 15.132 445.18 14.5986 445.863 14.2253C446.546 13.852 447.33 13.6653 448.215 13.6653C449.079 13.6653 449.847 13.8466 450.519 14.2093C451.191 14.572 451.714 15.0893 452.087 15.7613C452.471 16.4333 452.663 17.2173 452.663 18.1133ZM449.863 17.3933C449.863 16.924 449.703 16.5506 449.383 16.2733C449.063 15.996 448.663 15.8573 448.183 15.8573C447.724 15.8573 447.335 15.9906 447.015 16.2573C446.706 16.524 446.514 16.9026 446.439 17.3933H449.863ZM457.738 22.8493C456.96 22.8493 456.266 22.716 455.658 22.4493C455.05 22.1826 454.57 21.82 454.218 21.3613C453.866 20.892 453.669 20.3693 453.626 19.7933H456.33C456.362 20.1026 456.506 20.3533 456.762 20.5453C457.018 20.7373 457.333 20.8333 457.706 20.8333C458.048 20.8333 458.309 20.7693 458.49 20.6413C458.682 20.5026 458.778 20.3266 458.778 20.1133C458.778 19.8573 458.645 19.6706 458.378 19.5533C458.112 19.4253 457.68 19.2866 457.082 19.1373C456.442 18.988 455.909 18.8333 455.482 18.6733C455.056 18.5026 454.688 18.2413 454.378 17.8893C454.069 17.5266 453.914 17.0413 453.914 16.4333C453.914 15.9213 454.053 15.4573 454.33 15.0413C454.618 14.6146 455.034 14.2786 455.578 14.0333C456.133 13.788 456.789 13.6653 457.546 13.6653C458.666 13.6653 459.546 13.9426 460.186 14.4973C460.837 15.052 461.21 15.788 461.306 16.7053H458.778C458.736 16.396 458.597 16.1506 458.362 15.9693C458.138 15.788 457.84 15.6973 457.466 15.6973C457.146 15.6973 456.901 15.7613 456.73 15.8893C456.56 16.0066 456.474 16.172 456.474 16.3853C456.474 16.6413 456.608 16.8333 456.874 16.9613C457.152 17.0893 457.578 17.2173 458.154 17.3453C458.816 17.516 459.354 17.6866 459.77 17.8573C460.186 18.0173 460.549 18.284 460.858 18.6573C461.178 19.02 461.344 19.5106 461.354 20.1293C461.354 20.652 461.205 21.1213 460.906 21.5373C460.618 21.9426 460.197 22.2626 459.642 22.4973C459.098 22.732 458.464 22.8493 457.738 22.8493Z" fill="black" fill-opacity="0.25"/>
<path d="M205.689 19.5082C207.03 19.5033 208.341 19.1113 209.465 18.3795L209.869 18.1147C210.094 17.9626 210.304 17.79 210.496 17.5992L210.789 17.3205C211.034 17.0703 211.258 16.8 211.458 16.5123L211.541 16.4008C211.767 16.068 211.958 15.7132 212.113 15.3418C212.163 15.2384 212.205 15.1313 212.238 15.0213C212.354 14.7364 212.447 14.4429 212.517 14.1434L212.6 13.7951C212.653 13.3793 212.672 12.9598 212.656 12.541V2.78688L208.476 6.96721H202.902L198.722 2.78688V12.541C198.722 14.3888 199.456 16.1609 200.762 17.4675C202.069 18.7741 203.841 19.5082 205.689 19.5082ZM208.476 9.75409C208.751 9.75409 209.021 9.83582 209.25 9.98893C209.479 10.142 209.658 10.3597 209.763 10.6143C209.869 10.8689 209.896 11.1491 209.842 11.4194C209.789 11.6897 209.656 11.938 209.461 12.1328C209.266 12.3277 209.018 12.4604 208.748 12.5142C208.477 12.568 208.197 12.5404 207.943 12.4349C207.688 12.3294 207.47 12.1508 207.317 11.9217C207.164 11.6925 207.082 11.4231 207.082 11.1475C207.082 10.778 207.229 10.4235 207.49 10.1622C207.752 9.9009 208.106 9.75409 208.476 9.75409ZM202.902 9.75409C203.178 9.75409 203.447 9.83582 203.676 9.98893C203.905 10.142 204.084 10.3597 204.189 10.6143C204.295 10.8689 204.322 11.1491 204.269 11.4194C204.215 11.6897 204.082 11.938 203.887 12.1328C203.692 12.3277 203.444 12.4604 203.174 12.5142C202.904 12.568 202.623 12.5404 202.369 12.4349C202.114 12.3294 201.897 12.1508 201.743 11.9217C201.59 11.6925 201.509 11.4231 201.509 11.1475C201.509 10.778 201.655 10.4235 201.917 10.1622C202.178 9.9009 202.532 9.75409 202.902 9.75409Z" fill="black" fill-opacity="0.25"/>
<path d="M197.328 30.6557V23.6885H193.148V30.6557H188.967V16.582C188.259 16.479 187.581 16.2208 186.984 15.8257C186.387 15.4307 185.884 14.9086 185.512 14.2967C185.062 13.5558 184.812 12.7107 184.787 11.8443C184.812 11.151 184.979 10.4702 185.277 9.84385C185.575 9.21746 185.999 8.65867 186.521 8.20186C187.043 7.74504 187.653 7.39986 188.313 7.18753C188.974 6.97521 189.67 6.90023 190.361 6.96721C190.733 6.98956 191.105 6.93278 191.453 6.80064C191.802 6.66849 192.118 6.46397 192.381 6.20059C192.645 5.93721 192.849 5.62095 192.981 5.2727C193.113 4.92445 193.17 4.55213 193.148 4.18032C193.148 3.81076 193.295 3.45633 193.556 3.19501C193.817 2.93369 194.172 2.78688 194.541 2.78688C194.911 2.78688 195.265 2.93369 195.527 3.19501C195.788 3.45633 195.935 3.81076 195.935 4.18032C195.956 4.91803 195.826 5.65229 195.554 6.33811C195.281 7.02392 194.871 7.64685 194.349 8.1687C193.827 8.69055 193.204 9.10034 192.519 9.37296C191.833 9.64557 191.099 9.77527 190.361 9.75409C187.839 9.75409 187.574 11.3705 187.574 11.8582C187.574 12.3459 187.825 13.9344 190.361 13.9344H197.454C197.658 15.1348 198.123 16.2761 198.814 17.2783C199.506 18.2805 200.408 19.1195 201.458 19.7367C202.508 20.3538 203.68 20.7341 204.892 20.8511C206.104 20.9681 207.327 20.8189 208.476 20.4139V30.6557H204.295V23.6885H201.508V30.6557H197.328Z" fill="black" fill-opacity="0.25"/>
<path d="M259.89 15.0413C259.688 14.668 259.394 14.3853 259.01 14.1933C258.637 13.9906 258.194 13.8893 257.682 13.8893C256.797 13.8893 256.088 14.1826 255.554 14.7693C255.021 15.3453 254.754 16.1186 254.754 17.0893C254.754 18.124 255.032 18.9346 255.586 19.5213C256.152 20.0973 256.925 20.3853 257.906 20.3853C258.578 20.3853 259.144 20.2146 259.602 19.8733C260.072 19.532 260.413 19.0413 260.626 18.4013H257.154V16.3853H263.106V18.9293C262.904 19.612 262.557 20.2466 262.066 20.8333C261.586 21.42 260.973 21.8946 260.226 22.2573C259.48 22.62 258.637 22.8013 257.698 22.8013C256.589 22.8013 255.597 22.5613 254.722 22.0813C253.858 21.5906 253.181 20.9133 252.69 20.0493C252.21 19.1853 251.97 18.1986 251.97 17.0893C251.97 15.98 252.21 14.9933 252.69 14.1293C253.181 13.2546 253.858 12.5773 254.722 12.0973C255.586 11.6066 256.573 11.3613 257.682 11.3613C259.026 11.3613 260.157 11.6866 261.074 12.3373C262.002 12.988 262.616 13.8893 262.914 15.0413H259.89ZM264.078 18.2413C264.078 17.324 264.249 16.5186 264.59 15.8253C264.942 15.132 265.417 14.5986 266.014 14.2253C266.611 13.852 267.278 13.6653 268.014 13.6653C268.643 13.6653 269.193 13.7933 269.662 14.0493C270.142 14.3053 270.51 14.6413 270.766 15.0573V13.7933H273.502V22.7213H270.766V21.4573C270.499 21.8733 270.126 22.2093 269.646 22.4653C269.177 22.7213 268.627 22.8493 267.998 22.8493C267.273 22.8493 266.611 22.6626 266.014 22.2893C265.417 21.9053 264.942 21.3666 264.59 20.6733C264.249 19.9693 264.078 19.1586 264.078 18.2413ZM270.766 18.2573C270.766 17.5746 270.574 17.036 270.19 16.6413C269.817 16.2466 269.358 16.0493 268.814 16.0493C268.27 16.0493 267.806 16.2466 267.422 16.6413C267.049 17.0253 266.862 17.5586 266.862 18.2413C266.862 18.924 267.049 19.468 267.422 19.8733C267.806 20.268 268.27 20.4653 268.814 20.4653C269.358 20.4653 269.817 20.268 270.19 19.8733C270.574 19.4786 270.766 18.94 270.766 18.2573ZM280.457 20.4013V22.7213H279.065C278.073 22.7213 277.3 22.4813 276.745 22.0013C276.191 21.5106 275.913 20.716 275.913 19.6173V16.0653H274.825V13.7933H275.913V11.6173H278.649V13.7933H280.441V16.0653H278.649V19.6493C278.649 19.916 278.713 20.108 278.841 20.2253C278.969 20.3426 279.183 20.4013 279.481 20.4013H280.457ZM286.045 22.8493C285.171 22.8493 284.381 22.6626 283.677 22.2893C282.984 21.916 282.435 21.3826 282.029 20.6893C281.635 19.996 281.437 19.1853 281.437 18.2573C281.437 17.34 281.64 16.5346 282.045 15.8413C282.451 15.1373 283.005 14.5986 283.709 14.2253C284.413 13.852 285.203 13.6653 286.077 13.6653C286.952 13.6653 287.741 13.852 288.445 14.2253C289.149 14.5986 289.704 15.1373 290.109 15.8413C290.515 16.5346 290.717 17.34 290.717 18.2573C290.717 19.1746 290.509 19.9853 290.093 20.6893C289.688 21.3826 289.128 21.916 288.413 22.2893C287.709 22.6626 286.92 22.8493 286.045 22.8493ZM286.045 20.4813C286.568 20.4813 287.011 20.2893 287.373 19.9053C287.747 19.5213 287.933 18.972 287.933 18.2573C287.933 17.5426 287.752 16.9933 287.389 16.6093C287.037 16.2253 286.6 16.0333 286.077 16.0333C285.544 16.0333 285.101 16.2253 284.749 16.6093C284.397 16.9826 284.221 17.532 284.221 18.2573C284.221 18.972 284.392 19.5213 284.733 19.9053C285.085 20.2893 285.523 20.4813 286.045 20.4813ZM295.801 22.8493C295.022 22.8493 294.329 22.716 293.721 22.4493C293.113 22.1826 292.633 21.82 292.281 21.3613C291.929 20.892 291.731 20.3693 291.689 19.7933H294.393C294.425 20.1026 294.569 20.3533 294.825 20.5453C295.081 20.7373 295.395 20.8333 295.769 20.8333C296.11 20.8333 296.371 20.7693 296.553 20.6413C296.745 20.5026 296.841 20.3266 296.841 20.1133C296.841 19.8573 296.707 19.6706 296.441 19.5533C296.174 19.4253 295.742 19.2866 295.145 19.1373C294.505 18.988 293.971 18.8333 293.545 18.6733C293.118 18.5026 292.75 18.2413 292.441 17.8893C292.131 17.5266 291.977 17.0413 291.977 16.4333C291.977 15.9213 292.115 15.4573 292.393 15.0413C292.681 14.6146 293.097 14.2786 293.641 14.0333C294.195 13.788 294.851 13.6653 295.609 13.6653C296.729 13.6653 297.609 13.9426 298.249 14.4973C298.899 15.052 299.273 15.788 299.369 16.7053H296.841C296.798 16.396 296.659 16.1506 296.425 15.9693C296.201 15.788 295.902 15.6973 295.529 15.6973C295.209 15.6973 294.963 15.7613 294.793 15.8893C294.622 16.0066 294.537 16.172 294.537 16.3853C294.537 16.6413 294.67 16.8333 294.937 16.9613C295.214 17.0893 295.641 17.2173 296.217 17.3453C296.878 17.516 297.417 17.6866 297.833 17.8573C298.249 18.0173 298.611 18.284 298.921 18.6573C299.241 19.02 299.406 19.5106 299.417 20.1293C299.417 20.652 299.267 21.1213 298.969 21.5373C298.681 21.9426 298.259 22.2626 297.705 22.4973C297.161 22.732 296.526 22.8493 295.801 22.8493Z" fill="black" fill-opacity="0.25"/>
</svg>
