<svg width="214" height="73" viewBox="0 0 214 73" fill="none" xmlns="http://www.w3.org/2000/svg">
<path d="M11.973 50.577C11.973 51.215 11.753 51.7467 11.313 52.172C10.8803 52.59 10.2167 52.799 9.322 52.799H7.848V56H6.847V48.333H9.322C10.1873 48.333 10.8437 48.542 11.291 48.96C11.7457 49.378 11.973 49.917 11.973 50.577ZM9.322 51.974C9.87933 51.974 10.29 51.853 10.554 51.611C10.818 51.369 10.95 51.0243 10.95 50.577C10.95 49.631 10.4073 49.158 9.322 49.158H7.848V51.974H9.322ZM18.7171 52.755C18.7171 52.9457 18.7061 53.1473 18.6841 53.36H13.8661C13.9028 53.954 14.1045 54.4197 14.4711 54.757C14.8451 55.087 15.2961 55.252 15.8241 55.252C16.2568 55.252 16.6161 55.153 16.9021 54.955C17.1955 54.7497 17.4008 54.4783 17.5181 54.141H18.5961C18.4348 54.7203 18.1121 55.1933 17.6281 55.56C17.1441 55.9193 16.5428 56.099 15.8241 56.099C15.2521 56.099 14.7388 55.9707 14.2841 55.714C13.8368 55.4573 13.4848 55.0943 13.2281 54.625C12.9715 54.1483 12.8431 53.5983 12.8431 52.975C12.8431 52.3517 12.9678 51.8053 13.2171 51.336C13.4665 50.8667 13.8148 50.5073 14.2621 50.258C14.7168 50.0013 15.2375 49.873 15.8241 49.873C16.3961 49.873 16.9021 49.9977 17.3421 50.247C17.7821 50.4963 18.1195 50.841 18.3541 51.281C18.5961 51.7137 18.7171 52.205 18.7171 52.755ZM17.6831 52.546C17.6831 52.1647 17.5988 51.8383 17.4301 51.567C17.2615 51.2883 17.0305 51.0793 16.7371 50.94C16.4511 50.7933 16.1321 50.72 15.7801 50.72C15.2741 50.72 14.8415 50.8813 14.4821 51.204C14.1301 51.5267 13.9285 51.974 13.8771 52.546H17.6831ZM21.0394 50.951C21.2154 50.6063 21.4647 50.3387 21.7874 50.148C22.1174 49.9573 22.5171 49.862 22.9864 49.862V50.896H22.7224C21.6004 50.896 21.0394 51.5047 21.0394 52.722V56H20.0384V49.972H21.0394V50.951ZM25.1429 50.951C25.3189 50.6063 25.5683 50.3387 25.8909 50.148C26.2209 49.9573 26.6206 49.862 27.0899 49.862V50.896H26.8259C25.7039 50.896 25.1429 51.5047 25.1429 52.722V56H24.1419V49.972H25.1429V50.951ZM30.8744 56.099C30.3098 56.099 29.7964 55.9707 29.3344 55.714C28.8798 55.4573 28.5204 55.0943 28.2564 54.625C27.9998 54.1483 27.8714 53.5983 27.8714 52.975C27.8714 52.359 28.0034 51.8163 28.2674 51.347C28.5388 50.8703 28.9054 50.5073 29.3674 50.258C29.8294 50.0013 30.3464 49.873 30.9184 49.873C31.4904 49.873 32.0074 50.0013 32.4694 50.258C32.9314 50.5073 33.2944 50.8667 33.5584 51.336C33.8298 51.8053 33.9654 52.3517 33.9654 52.975C33.9654 53.5983 33.8261 54.1483 33.5474 54.625C33.2761 55.0943 32.9058 55.4573 32.4364 55.714C31.9671 55.9707 31.4464 56.099 30.8744 56.099ZM30.8744 55.219C31.2338 55.219 31.5711 55.1347 31.8864 54.966C32.2018 54.7973 32.4548 54.5443 32.6454 54.207C32.8434 53.8697 32.9424 53.459 32.9424 52.975C32.9424 52.491 32.8471 52.0803 32.6564 51.743C32.4658 51.4057 32.2164 51.1563 31.9084 50.995C31.6004 50.8263 31.2668 50.742 30.9074 50.742C30.5408 50.742 30.2034 50.8263 29.8954 50.995C29.5948 51.1563 29.3528 51.4057 29.1694 51.743C28.9861 52.0803 28.8944 52.491 28.8944 52.975C28.8944 53.4663 28.9824 53.8807 29.1584 54.218C29.3418 54.5553 29.5838 54.8083 29.8844 54.977C30.1851 55.1383 30.5151 55.219 30.8744 55.219ZM37.4156 56.099C36.9536 56.099 36.5392 56.022 36.1726 55.868C35.8059 55.7067 35.5162 55.4867 35.3036 55.208C35.0909 54.922 34.9736 54.5957 34.9516 54.229H35.9856C36.0149 54.5297 36.1542 54.7753 36.4036 54.966C36.6602 55.1567 36.9939 55.252 37.4046 55.252C37.7859 55.252 38.0866 55.1677 38.3066 54.999C38.5266 54.8303 38.6366 54.6177 38.6366 54.361C38.6366 54.097 38.5192 53.9027 38.2846 53.778C38.0499 53.646 37.6869 53.5177 37.1956 53.393C36.7482 53.2757 36.3816 53.1583 36.0956 53.041C35.8169 52.9163 35.5749 52.7367 35.3696 52.502C35.1716 52.26 35.0726 51.9447 35.0726 51.556C35.0726 51.248 35.1642 50.9657 35.3476 50.709C35.5309 50.4523 35.7912 50.2507 36.1286 50.104C36.4659 49.95 36.8509 49.873 37.2836 49.873C37.9509 49.873 38.4899 50.0417 38.9006 50.379C39.3112 50.7163 39.5312 51.1783 39.5606 51.765H38.5596C38.5376 51.4497 38.4092 51.1967 38.1746 51.006C37.9472 50.8153 37.6392 50.72 37.2506 50.72C36.8912 50.72 36.6052 50.797 36.3926 50.951C36.1799 51.105 36.0736 51.3067 36.0736 51.556C36.0736 51.754 36.1359 51.919 36.2606 52.051C36.3926 52.1757 36.5539 52.2783 36.7446 52.359C36.9426 52.4323 37.2139 52.5167 37.5586 52.612C37.9912 52.7293 38.3432 52.8467 38.6146 52.964C38.8859 53.074 39.1169 53.2427 39.3076 53.47C39.5056 53.6973 39.6082 53.9943 39.6156 54.361C39.6156 54.691 39.5239 54.988 39.3406 55.252C39.1572 55.516 38.8969 55.725 38.5596 55.879C38.2296 56.0257 37.8482 56.099 37.4156 56.099Z" fill="#1E1E1E"/>
<path d="M101.655 50.555C101.442 50.1077 101.134 49.763 100.731 49.521C100.328 49.2717 99.8583 49.147 99.323 49.147C98.7877 49.147 98.3037 49.2717 97.871 49.521C97.4457 49.763 97.1083 50.115 96.859 50.577C96.617 51.0317 96.496 51.5597 96.496 52.161C96.496 52.7623 96.617 53.2903 96.859 53.745C97.1083 54.1997 97.4457 54.5517 97.871 54.801C98.3037 55.043 98.7877 55.164 99.323 55.164C100.071 55.164 100.687 54.9403 101.171 54.493C101.655 54.0457 101.937 53.4407 102.018 52.678H98.96V51.864H103.085V52.634C103.026 53.2647 102.828 53.844 102.491 54.372C102.154 54.8927 101.71 55.307 101.16 55.615C100.61 55.9157 99.9977 56.066 99.323 56.066C98.6117 56.066 97.9627 55.901 97.376 55.571C96.7893 55.2337 96.3237 54.768 95.979 54.174C95.6417 53.58 95.473 52.909 95.473 52.161C95.473 51.413 95.6417 50.742 95.979 50.148C96.3237 49.5467 96.7893 49.081 97.376 48.751C97.9627 48.4137 98.6117 48.245 99.323 48.245C100.137 48.245 100.856 48.4467 101.479 48.85C102.11 49.2533 102.568 49.8217 102.854 50.555H101.655ZM104.035 52.964C104.035 52.348 104.159 51.809 104.409 51.347C104.658 50.8777 104.999 50.5147 105.432 50.258C105.872 50.0013 106.359 49.873 106.895 49.873C107.423 49.873 107.881 49.9867 108.27 50.214C108.658 50.4413 108.948 50.7273 109.139 51.072V49.972H110.151V56H109.139V54.878C108.941 55.23 108.644 55.5233 108.248 55.758C107.859 55.9853 107.404 56.099 106.884 56.099C106.348 56.099 105.864 55.967 105.432 55.703C104.999 55.439 104.658 55.0687 104.409 54.592C104.159 54.1153 104.035 53.5727 104.035 52.964ZM109.139 52.975C109.139 52.5203 109.047 52.1243 108.864 51.787C108.68 51.4497 108.431 51.193 108.116 51.017C107.808 50.8337 107.467 50.742 107.093 50.742C106.719 50.742 106.378 50.83 106.07 51.006C105.762 51.182 105.516 51.4387 105.333 51.776C105.149 52.1133 105.058 52.5093 105.058 52.964C105.058 53.426 105.149 53.8293 105.333 54.174C105.516 54.5113 105.762 54.7717 106.07 54.955C106.378 55.131 106.719 55.219 107.093 55.219C107.467 55.219 107.808 55.131 108.116 54.955C108.431 54.7717 108.68 54.5113 108.864 54.174C109.047 53.8293 109.139 53.4297 109.139 52.975ZM113.063 50.797V54.35C113.063 54.6433 113.125 54.8523 113.25 54.977C113.375 55.0943 113.591 55.153 113.899 55.153H114.636V56H113.734C113.177 56 112.759 55.8717 112.48 55.615C112.201 55.3583 112.062 54.9367 112.062 54.35V50.797H111.281V49.972H112.062V48.454H113.063V49.972H114.636V50.797H113.063ZM118.478 56.099C117.913 56.099 117.4 55.9707 116.938 55.714C116.483 55.4573 116.124 55.0943 115.86 54.625C115.603 54.1483 115.475 53.5983 115.475 52.975C115.475 52.359 115.607 51.8163 115.871 51.347C116.142 50.8703 116.509 50.5073 116.971 50.258C117.433 50.0013 117.95 49.873 118.522 49.873C119.094 49.873 119.611 50.0013 120.073 50.258C120.535 50.5073 120.898 50.8667 121.162 51.336C121.433 51.8053 121.569 52.3517 121.569 52.975C121.569 53.5983 121.43 54.1483 121.151 54.625C120.88 55.0943 120.509 55.4573 120.04 55.714C119.571 55.9707 119.05 56.099 118.478 56.099ZM118.478 55.219C118.837 55.219 119.175 55.1347 119.49 54.966C119.805 54.7973 120.058 54.5443 120.249 54.207C120.447 53.8697 120.546 53.459 120.546 52.975C120.546 52.491 120.451 52.0803 120.26 51.743C120.069 51.4057 119.82 51.1563 119.512 50.995C119.204 50.8263 118.87 50.742 118.511 50.742C118.144 50.742 117.807 50.8263 117.499 50.995C117.198 51.1563 116.956 51.4057 116.773 51.743C116.59 52.0803 116.498 52.491 116.498 52.975C116.498 53.4663 116.586 53.8807 116.762 54.218C116.945 54.5553 117.187 54.8083 117.488 54.977C117.789 55.1383 118.119 55.219 118.478 55.219ZM125.019 56.099C124.557 56.099 124.143 56.022 123.776 55.868C123.409 55.7067 123.12 55.4867 122.907 55.208C122.694 54.922 122.577 54.5957 122.555 54.229H123.589C123.618 54.5297 123.758 54.7753 124.007 54.966C124.264 55.1567 124.597 55.252 125.008 55.252C125.389 55.252 125.69 55.1677 125.91 54.999C126.13 54.8303 126.24 54.6177 126.24 54.361C126.24 54.097 126.123 53.9027 125.888 53.778C125.653 53.646 125.29 53.5177 124.799 53.393C124.352 53.2757 123.985 53.1583 123.699 53.041C123.42 52.9163 123.178 52.7367 122.973 52.502C122.775 52.26 122.676 51.9447 122.676 51.556C122.676 51.248 122.768 50.9657 122.951 50.709C123.134 50.4523 123.395 50.2507 123.732 50.104C124.069 49.95 124.454 49.873 124.887 49.873C125.554 49.873 126.093 50.0417 126.504 50.379C126.915 50.7163 127.135 51.1783 127.164 51.765H126.163C126.141 51.4497 126.013 51.1967 125.778 51.006C125.551 50.8153 125.243 50.72 124.854 50.72C124.495 50.72 124.209 50.797 123.996 50.951C123.783 51.105 123.677 51.3067 123.677 51.556C123.677 51.754 123.739 51.919 123.864 52.051C123.996 52.1757 124.157 52.2783 124.348 52.359C124.546 52.4323 124.817 52.5167 125.162 52.612C125.595 52.7293 125.947 52.8467 126.218 52.964C126.489 53.074 126.72 53.2427 126.911 53.47C127.109 53.6973 127.212 53.9943 127.219 54.361C127.219 54.691 127.127 54.988 126.944 55.252C126.761 55.516 126.5 55.725 126.163 55.879C125.833 56.0257 125.452 56.099 125.019 56.099Z" fill="#1E1E1E"/>
<path d="M182.379 54.295H179.035L178.419 56H177.363L180.135 48.377H181.29L184.051 56H182.995L182.379 54.295ZM182.093 53.481L180.707 49.609L179.321 53.481H182.093ZM187.503 55.076L189.373 49.972H190.44L188.075 56H186.909L184.544 49.972H185.622L187.503 55.076ZM196.925 52.755C196.925 52.9457 196.914 53.1473 196.892 53.36H192.074C192.111 53.954 192.312 54.4197 192.679 54.757C193.053 55.087 193.504 55.252 194.032 55.252C194.465 55.252 194.824 55.153 195.11 54.955C195.403 54.7497 195.609 54.4783 195.726 54.141H196.804C196.643 54.7203 196.32 55.1933 195.836 55.56C195.352 55.9193 194.751 56.099 194.032 56.099C193.46 56.099 192.947 55.9707 192.492 55.714C192.045 55.4573 191.693 55.0943 191.436 54.625C191.179 54.1483 191.051 53.5983 191.051 52.975C191.051 52.3517 191.176 51.8053 191.425 51.336C191.674 50.8667 192.023 50.5073 192.47 50.258C192.925 50.0013 193.445 49.873 194.032 49.873C194.604 49.873 195.11 49.9977 195.55 50.247C195.99 50.4963 196.327 50.841 196.562 51.281C196.804 51.7137 196.925 52.205 196.925 52.755ZM195.891 52.546C195.891 52.1647 195.807 51.8383 195.638 51.567C195.469 51.2883 195.238 51.0793 194.945 50.94C194.659 50.7933 194.34 50.72 193.988 50.72C193.482 50.72 193.049 50.8813 192.69 51.204C192.338 51.5267 192.136 51.974 192.085 52.546H195.891ZM200.38 56.099C199.918 56.099 199.504 56.022 199.137 55.868C198.771 55.7067 198.481 55.4867 198.268 55.208C198.056 54.922 197.938 54.5957 197.916 54.229H198.95C198.98 54.5297 199.119 54.7753 199.368 54.966C199.625 55.1567 199.959 55.252 200.369 55.252C200.751 55.252 201.051 55.1677 201.271 54.999C201.491 54.8303 201.601 54.6177 201.601 54.361C201.601 54.097 201.484 53.9027 201.249 53.778C201.015 53.646 200.652 53.5177 200.16 53.393C199.713 53.2757 199.346 53.1583 199.06 53.041C198.782 52.9163 198.54 52.7367 198.334 52.502C198.136 52.26 198.037 51.9447 198.037 51.556C198.037 51.248 198.129 50.9657 198.312 50.709C198.496 50.4523 198.756 50.2507 199.093 50.104C199.431 49.95 199.816 49.873 200.248 49.873C200.916 49.873 201.455 50.0417 201.865 50.379C202.276 50.7163 202.496 51.1783 202.525 51.765H201.524C201.502 51.4497 201.374 51.1967 201.139 51.006C200.912 50.8153 200.604 50.72 200.215 50.72C199.856 50.72 199.57 50.797 199.357 50.951C199.145 51.105 199.038 51.3067 199.038 51.556C199.038 51.754 199.101 51.919 199.225 52.051C199.357 52.1757 199.519 52.2783 199.709 52.359C199.907 52.4323 200.179 52.5167 200.523 52.612C200.956 52.7293 201.308 52.8467 201.579 52.964C201.851 53.074 202.082 53.2427 202.272 53.47C202.47 53.6973 202.573 53.9943 202.58 54.361C202.58 54.691 202.489 54.988 202.305 55.252C202.122 55.516 201.862 55.725 201.524 55.879C201.194 56.0257 200.813 56.099 200.38 56.099Z" fill="#1E1E1E"/>
<path d="M34 18H32L30.73 16.73C30.2707 16.2702 29.6498 16.0082 29 16H26.5C26.3599 15.4388 26.0394 14.9391 25.5878 14.5778C25.1361 14.2165 24.5783 14.0135 24 14V20.36C24.0514 21.3699 24.4506 22.331 25.13 23.08C26.2486 24.1553 27.7116 24.8 29.26 24.9L32.71 23.52C33.1148 23.3575 33.4793 23.1087 33.7781 22.7909C34.0768 22.4731 34.3027 22.094 34.44 21.68L35 20.15C35.0152 20.0472 35.0152 19.9428 35 19.84V19C35 18.7348 34.8946 18.4804 34.7071 18.2929C34.5196 18.1054 34.2652 18 34 18ZM29 20C28.8022 20 28.6089 19.9414 28.4444 19.8315C28.28 19.7216 28.1518 19.5654 28.0761 19.3827C28.0004 19.2 27.9806 18.9989 28.0192 18.8049C28.0578 18.6109 28.153 18.4327 28.2929 18.2929C28.4327 18.153 28.6109 18.0578 28.8049 18.0192C28.9989 17.9806 29.2 18.0004 29.3827 18.0761C29.5654 18.1518 29.7216 18.28 29.8315 18.4444C29.9414 18.6089 30 18.8022 30 19C30 19.2652 29.8946 19.5196 29.7071 19.7071C29.5196 19.8946 29.2652 20 29 20Z" fill="black"/>
<path d="M24.38 23.74C23.6824 22.976 23.2266 22.0226 23.07 21H19C18.7328 21.0177 18.4649 20.9781 18.2142 20.8838C17.9635 20.7895 17.7359 20.6428 17.5465 20.4535C17.3572 20.2641 17.2105 20.0365 17.1162 19.7858C17.0219 19.5351 16.9823 19.2672 17 19C17 18.7348 16.8946 18.4804 16.7071 18.2929C16.5196 18.1054 16.2652 18 16 18C15.7348 18 15.4804 18.1054 15.2929 18.2929C15.1054 18.4804 15 18.7348 15 19C15.01 19.694 15.174 20.3771 15.48 21C15.8174 21.6541 16.3481 22.1884 17 22.53V34H20V29H26V34H29V25.87C27.2555 25.7326 25.6174 24.9773 24.38 23.74Z" fill="black"/>
<path d="M115 26C115.962 25.9965 116.903 25.7152 117.71 25.19L118 25C118.161 24.8908 118.312 24.7669 118.45 24.63L118.66 24.43C118.836 24.2505 118.997 24.0565 119.14 23.85L119.2 23.77C119.362 23.5311 119.499 23.2765 119.61 23.01C119.646 22.9358 119.676 22.8589 119.7 22.78C119.783 22.5756 119.85 22.3649 119.9 22.15L119.96 21.9C119.998 21.6016 120.011 21.3006 120 21V14L117 17H113L110 14V21C110 22.3261 110.527 23.5979 111.464 24.5355C112.402 25.4732 113.674 26 115 26ZM117 19C117.198 19 117.391 19.0586 117.556 19.1685C117.72 19.2784 117.848 19.4346 117.924 19.6173C118 19.8 118.019 20.0011 117.981 20.1951C117.942 20.3891 117.847 20.5673 117.707 20.7071C117.567 20.847 117.389 20.9422 117.195 20.9808C117.001 21.0194 116.8 20.9996 116.617 20.9239C116.435 20.8482 116.278 20.72 116.169 20.5556C116.059 20.3911 116 20.1978 116 20C116 19.7348 116.105 19.4804 116.293 19.2929C116.48 19.1054 116.735 19 117 19ZM113 19C113.198 19 113.391 19.0586 113.556 19.1685C113.72 19.2784 113.848 19.4346 113.924 19.6173C114 19.8 114.019 20.0011 113.981 20.1951C113.942 20.3891 113.847 20.5673 113.707 20.7071C113.567 20.847 113.389 20.9422 113.195 20.9808C113.001 21.0194 112.8 20.9996 112.617 20.9239C112.435 20.8482 112.278 20.72 112.169 20.5556C112.059 20.3911 112 20.1978 112 20C112 19.7348 112.105 19.4804 112.293 19.2929C112.48 19.1054 112.735 19 113 19Z" fill="black"/>
<path d="M109 34V29H106V34H103V23.9C102.491 23.8261 102.005 23.6408 101.577 23.3573C101.148 23.0738 100.787 22.6991 100.52 22.26C100.197 21.7283 100.018 21.1218 100 20.5C100.018 20.0025 100.138 19.5139 100.352 19.0644C100.566 18.6149 100.869 18.2139 101.244 17.886C101.619 17.5582 102.056 17.3105 102.53 17.1581C103.004 17.0057 103.504 16.9519 104 17C104.267 17.016 104.534 16.9753 104.784 16.8805C105.034 16.7856 105.261 16.6389 105.45 16.4498C105.639 16.2608 105.786 16.0339 105.88 15.7839C105.975 15.534 106.016 15.2668 106 15C106 14.7348 106.105 14.4804 106.293 14.2929C106.48 14.1054 106.735 14 107 14C107.265 14 107.52 14.1054 107.707 14.2929C107.895 14.4804 108 14.7348 108 15C108.015 15.5294 107.922 16.0564 107.726 16.5485C107.531 17.0407 107.237 17.4877 106.862 17.8622C106.488 18.2368 106.041 18.5308 105.549 18.7265C105.056 18.9221 104.529 19.0152 104 19C102.19 19 102 20.16 102 20.51C102 20.86 102.18 22 104 22H109.09C109.237 22.8615 109.57 23.6805 110.067 24.3997C110.563 25.119 111.211 25.7211 111.964 26.164C112.717 26.6068 113.558 26.8798 114.428 26.9638C115.298 27.0477 116.176 26.9406 117 26.65V34H114V29H112V34H109Z" fill="black"/>
<path d="M206 23.5L202.95 22.37C202.69 21.22 202.04 20.56 202.04 20.56C201.651 20.1701 201.189 19.8608 200.68 19.6498C200.171 19.4388 199.626 19.3301 199.075 19.3301C198.524 19.3301 197.979 19.4388 197.47 19.6498C196.961 19.8608 196.499 20.1701 196.11 20.56L194.63 22.04L188 15C187 19 188 23 190.45 26.22L185 31.5C185 31.5 193.89 33.5 199.07 29.45C201.83 27.29 202.45 26.03 202.84 24.7L206 23.5ZM200.71 23.72C200.32 24.11 199.68 24.11 199.29 23.72C199.197 23.6275 199.124 23.5176 199.074 23.3966C199.023 23.2757 198.998 23.146 198.998 23.015C198.998 22.884 199.023 22.7543 199.074 22.6334C199.124 22.5124 199.197 22.4025 199.29 22.31C199.68 21.92 200.32 21.92 200.71 22.31C201.1 22.7 201.1 23.33 200.71 23.72Z" fill="black"/>
<line x1="66.5" x2="66.5" y2="45" stroke="black"/>
<line x1="148.5" x2="148.5" y2="45" stroke="black"/>
<rect y="66" width="9" height="7" fill="#0E4B5B"/>
<rect x="10" y="66" width="9" height="7" fill="#0E4B5B"/>
<rect x="20" y="66" width="9" height="7" fill="#0E4B5B"/>
<rect x="30" y="66" width="9" height="7" fill="#0E4B5B"/>
<rect x="40" y="66" width="9" height="7" fill="#0E4B5B"/>
<rect x="84" y="66" width="9" height="7" fill="#0E4B5B"/>
<rect x="94" y="66" width="9" height="7" fill="#0E4B5B"/>
<rect x="104" y="66" width="9" height="7" fill="#0E4B5B"/>
<rect x="114" y="66" width="9" height="7" fill="#0E4B5B"/>
<rect x="124" y="66" width="9" height="7" fill="#0E4B5B"/>
<rect x="165" y="66" width="9" height="7" fill="#0E4B5B"/>
<rect x="175" y="66" width="9" height="7" fill="#0E4B5B"/>
<rect x="185" y="66" width="9" height="7" fill="#0E4B5B"/>
<rect x="195" y="66" width="9" height="7" fill="#D9D9D9"/>
<rect x="205" y="66" width="9" height="7" fill="#D9D9D9"/>
</svg>
