<svg width="35" height="34" viewBox="0 0 35 34" fill="none" xmlns="http://www.w3.org/2000/svg">
<path d="M30.0165 8.36065H27.2296L25.4599 6.59098C24.8199 5.95031 23.9548 5.58526 23.0492 5.57377H19.5656C19.3705 4.79176 18.9239 4.0955 18.2945 3.592C17.6651 3.0885 16.8878 2.80563 16.082 2.78688V11.6492C16.1536 13.0564 16.71 14.3956 17.6566 15.4393C19.2153 16.9377 21.254 17.8361 23.4115 17.9754L28.2189 16.0525C28.783 15.826 29.2909 15.4793 29.7072 15.0365C30.1235 14.5937 30.4383 14.0654 30.6296 13.4885L31.4099 11.3566C31.4311 11.2133 31.4311 11.0678 31.4099 10.9246V9.75409C31.4099 9.38453 31.2631 9.0301 31.0018 8.76878C30.7404 8.50746 30.386 8.36065 30.0165 8.36065ZM23.0492 11.1475C22.7736 11.1475 22.5042 11.0658 22.2751 10.9127C22.0459 10.7596 21.8673 10.542 21.7619 10.2873C21.6564 10.0327 21.6288 9.75255 21.6826 9.48225C21.7363 9.21195 21.8691 8.96366 22.0639 8.76878C22.2588 8.5739 22.5071 8.44119 22.7774 8.38743C23.0477 8.33366 23.3279 8.36125 23.5825 8.46672C23.8371 8.57219 24.0547 8.75079 24.2079 8.97994C24.361 9.20909 24.4427 9.4785 24.4427 9.75409C24.4427 10.1237 24.2959 10.4781 24.0346 10.7394C23.7732 11.0007 23.4188 11.1475 23.0492 11.1475Z" fill="#0E4B5B"/>
<path d="M16.6115 16.359C15.6395 15.2944 15.0043 13.966 14.7861 12.541H9.11479C8.74243 12.5656 8.36912 12.5104 8.01983 12.3791C7.67054 12.2477 7.35334 12.0433 7.08947 11.7794C6.8256 11.5155 6.62115 11.1983 6.48981 10.8491C6.35847 10.4998 6.30327 10.1265 6.3279 9.7541C6.3279 9.38454 6.18109 9.03011 5.91977 8.76879C5.65845 8.50747 5.30402 8.36066 4.93446 8.36066C4.56489 8.36066 4.21047 8.50747 3.94915 8.76879C3.68782 9.03011 3.54102 9.38454 3.54102 9.7541C3.55501 10.7211 3.78346 11.673 4.20987 12.541C4.67995 13.4525 5.41953 14.1969 6.3279 14.673V30.6557H10.5082V23.6885H18.8689V30.6557H23.0492V19.3271C20.6184 19.1356 18.3357 18.0831 16.6115 16.359Z" fill="#0E4B5B"/>
</svg>
